<?xml version="1.0" encoding="UTF-8" standalone="no"?>
<!-- Generator: Adobe Illustrator 13.0.2, SVG Export Plug-In . SVG Version: 6.00 Build 14948)  -->

<svg
   id="Layer_1"
   xml:space="preserve"
   viewBox="0 0 96.27025 122.93831"
   version="1.1"
   y="0px"
   x="0px"
   width="96.270248"
   height="122.93831"
   xmlns:xlink="http://www.w3.org/1999/xlink"
   xmlns="http://www.w3.org/2000/svg"
   xmlns:svg="http://www.w3.org/2000/svg"
   xmlns:rdf="http://www.w3.org/1999/02/22-rdf-syntax-ns#"
   xmlns:cc="http://creativecommons.org/ns#"
   xmlns:dc="http://purl.org/dc/elements/1.1/"><defs
   id="defs1"><linearGradient
     id="linearGradient8"><stop
       style="stop-color:#59ccb3;stop-opacity:1;"
       offset="0"
       id="stop6" /><stop
       style="stop-color:#57c1bc;stop-opacity:1;"
       offset="0.49771217"
       id="stop7" /><stop
       style="stop-color:#59b9c6;stop-opacity:1;"
       offset="1"
       id="stop8" /></linearGradient><linearGradient
     id="linearGradient5"><stop
       style="stop-color:#5bdaa7;stop-opacity:1;"
       offset="0"
       id="stop3" /><stop
       style="stop-color:#53adce;stop-opacity:1;"
       offset="0.74842769"
       id="stop4" /><stop
       style="stop-color:#239cad;stop-opacity:1;"
       offset="1"
       id="stop5" /></linearGradient><linearGradient
     id="linearGradient29"><stop
       style="stop-color:#6adaaf;stop-opacity:1;"
       offset="0"
       id="stop29" /><stop
       style="stop-color:#53adce;stop-opacity:1;"
       offset="0.75375909"
       id="stop31" /><stop
       style="stop-color:#3cb7cc;stop-opacity:1;"
       offset="1"
       id="stop30" /></linearGradient><linearGradient
     xlink:href="#linearGradient8"
     id="linearGradient79"
     gradientUnits="userSpaceOnUse"
     x1="443.03525"
     y1="6.4691544"
     x2="474.3493"
     y2="38.408539"
     gradientTransform="translate(-387.35273,2.4954985)" /><linearGradient
     xlink:href="#linearGradient5"
     id="linearGradient80"
     gradientUnits="userSpaceOnUse"
     gradientTransform="matrix(0.98038407,0,0,0.98038407,-378.81024,3.6494285)"
     x1="394.69901"
     y1="2.7508903"
     x2="476.31186"
     y2="114.87547" /><linearGradient
     xlink:href="#linearGradient29"
     id="linearGradient81"
     gradientUnits="userSpaceOnUse"
     gradientTransform="matrix(0.98038407,0,0,0.98038407,-378.81024,3.6494285)"
     x1="406.59393"
     y1="19.129808"
     x2="464.38177"
     y2="98.522125" /></defs>


<metadata
   id="metadata1"><rdf:RDF><cc:Work><dc:format>image/svg+xml</dc:format><dc:type
         rdf:resource="http://purl.org/dc/dcmitype/StillImage" /><cc:license
         rdf:resource="http://creativecommons.org/publicdomain/zero/1.0/" /><dc:publisher><cc:Agent
           rdf:about="http://openclipart.org/"><dc:title>Openclipart</dc:title></cc:Agent></dc:publisher><dc:title>Signs Hazard Warning</dc:title><dc:date>2006-09-11T08:59:16</dc:date><dc:description /><dc:source>https://openclipart.org/detail/14422/signs-hazard-warning-by-h0us3s-14422</dc:source><dc:creator><cc:Agent><dc:title>h0us3s</dc:title></cc:Agent></dc:creator><dc:subject><rdf:Bag><rdf:li>hazard</rdf:li><rdf:li>sign</rdf:li><rdf:li>warning</rdf:li></rdf:Bag></dc:subject></cc:Work><cc:License
       rdf:about="http://creativecommons.org/publicdomain/zero/1.0/"><cc:permits
         rdf:resource="http://creativecommons.org/ns#Reproduction" /><cc:permits
         rdf:resource="http://creativecommons.org/ns#Distribution" /><cc:permits
         rdf:resource="http://creativecommons.org/ns#DerivativeWorks" /></cc:License></rdf:RDF></metadata><path
   d="M 92.67525,37.245209 59.14321,3.595 H 16.7059 C 10.42122,3.595 3.595,10.3973 3.595,16.292399 V 106.3505 c 0,7.26251 6.55734,12.99281 13.1109,12.99281 h 62.86793 c 6.31726,0 13.10142,-5.7303 13.10142,-12.99281 z"
   style="fill:url(#linearGradient80);fill-rule:nonzero;stroke:url(#linearGradient81);stroke-width:7.19;stroke-linecap:round;stroke-linejoin:round;stroke-miterlimit:10;stroke-dasharray:none;stroke-opacity:1;paint-order:fill markers stroke"
   id="path65" /><g
   id="g78"
   transform="translate(-67.163133,-3.5047719)">
	<g
   id="g67"
   transform="translate(128.08,100.13)">
		<g
   id="g66"
   transform="translate(-495.65,-311.93)">
			
			
		</g>
	</g>
	<g
   id="g77"
   transform="matrix(0.44282,0,0,0.44282,633.19,218.93)">
		<path
   id="path67"
   style="fill:#010101"
   d="m -1152.8229,-468.61919 -52.5401,141.88634 57.8229,-101.76078 -5.2588,-40.12556 z m -40.4678,0.50548 -23.172,-3.39892 -1.6853,140.62913 24.8693,-137.22721 z m 56.4365,63.93355 -52.8218,70.26116 63.2431,-66.01534 -10.3973,-4.24282 z m 27.8558,6.57539 -83.6023,81.25309 115.5589,-79.39442 -31.9186,-1.86067 z m -152.6597,-61.48273 1.3426,69.46038 25.603,59.50693 c 0,-1.56 -25.603,-133.03591 -25.603,-133.03591 z m 184.875,84.60691 -107.8569,63.87559 111.3153,-50.45169 -3.4604,-13.4269 z m -183.8559,5.91025 0.088,32.22695 14.979,15.91079 -15.0672,-48.13474 z m 183.3003,40.62003 -108.6448,26.34229 109.5249,-13.84724 -0.8931,-12.49205 z m 0.7461,28.27028 -91.3984,3.82103 91.9072,3.123 -0.4998,-6.94003 z m -108.5319,10.20666 109.0574,18.0815 -2.0449,-13.46079 -106.9447,-4.62671 z m -3.3373,11.24768 111.2136,41.92052 -0.2747,-13.9565 c -19.9894,-2.69984 -110.9389,-27.96402 -110.9389,-27.96402 z m -9.3774,8.95667 55.4478,41.58818 48.7768,-1.52007 z" />
		<path
   id="path68"
   style="fill:#010101;stroke:#010101;stroke-width:2"
   d="m -1187.2773,-427.90736 c 0.898,-1.347 3.2181,-1.96344 4.3711,-3.11944 1.526,-1.524 1.889,0.65469 3.483,1.05169 1.246,0.313 2.284,0.53631 2.284,1.69431 0,2.419 -2.794,3.401 -4.121,4.393 -1.586,1.191 -1.452,6.104 -2.196,7.963 -0.765,1.912 -2.589,2.496 -3.844,0.823 -1.439,-1.919 -2.095,-3.89 -3.296,-5.491 0.2627,-2.74686 2.7336,-4.14453 3.3189,-7.31456 z" />
		<path
   id="path69"
   style="fill:#010101;stroke:#010101;stroke-width:2"
   d="m -1163.3,-384.38 c 1.729,-0.865 -3.837,0.549 -5.769,0.549 -2.152,0 -0.335,4.263 0,4.942 1.513,3.021 3.753,-0.375 4.671,3.295 0.737,2.962 0.45,2.957 3.295,0.823 1.01,-0.754 1.429,-3.709 2.197,-4.664 1.552,-1.945 1.817,-2.9 2.743,-5.22 0.776,-1.932 0.609,-2.413 -0.547,-3.566 -1.447,-1.442 -3.996,1.301 -4.666,2.194 -0.7,0.98 -0.5,0.86 -1.9,1.66 z" />
		<path
   id="path70"
   style="fill:#010101;stroke:#010101;stroke-width:2"
   d="m -1152.3,-322.06 c -0.185,0.247 2.827,-1.738 4.667,-2.196 2.064,-0.516 3.52,0.238 4.94,1.376 1.597,1.27 1.014,4.186 0.829,5.487 -0.216,1.486 -4.66,0.829 -5.769,0.551 -0.366,-0.093 -0.732,-0.181 -1.098,-0.278 -2.223,-0.556 -4.803,0.344 -6.589,-0.547 -1.919,-0.964 0.322,-3.339 0.825,-3.846 0.5,-0.34 4.7454,-1.47259 4.9454,-1.51259 z" />
		<path
   id="path71"
   style="fill:#010101;stroke:#010101;stroke-width:2"
   d="m -1220.3189,-376.58722 c 0.042,-0.044 -2.2638,-0.926 -6.1988,1.043 -2.148,1.074 -2.938,2.31329 -1.704,4.78329 1.411,2.823 0.9859,3.431 -0.2501,5.496 -1.065,1.773 -0.9151,3.77571 0.4639,3.77571 1.576,0 3.414,1.297 4.667,1.923 2.501,1.253 1.923,-3.537 1.923,-4.666 0,-1.826 -0.139,-3.835 0.273,-5.489 0.302,-1.204 0.052,-2.944 0.277,-3.844 0.3,-1.33 0.5,-1.4 0.5,-3.02 z" />
		
		<path
   id="path72"
   style="fill:#010101;stroke:#010101;stroke-width:2"
   d="m -1130.0021,-273.57852 c 0,-3.021 -10.471,-2.194 -12.627,-2.194 -3.374,0 -2.527,2.113 -0.551,3.295 1.614,0.968 5.628,0.247 7.141,0.547 2.421,0.485 4.415,1.656 6.867,2.474 1.985,0.662 3.723,-0.344 4.115,-1.923 0.181,-0.71 -1.927,-2.481 -2.47,-3.021 -1.627,-1.623 -2.7971,-0.005 -6.5184,-1.28232" />
		<path
   id="path73"
   style="fill:#010101;stroke:#010101;stroke-width:2.00081;stroke-linecap:butt;stroke-linejoin:round;stroke-dasharray:none"
   d="m -1184.9,-348.14 c -2.137,-2.135 -4.34,1.852 -5.216,3.021 -1.325,1.769 3.677,1.733 4.393,1.372 1.8,-0.91 1.2993,-2.83644 0.8,-4.39 z" />
		
	<path
   id="path74"
   style="fill:#010101;stroke:#010101;stroke-width:1.67048;stroke-linecap:butt;stroke-linejoin:round;stroke-dasharray:none"
   d="m -1162.1377,-264.15044 c -0.9876,-2.3208 -3.9196,0.1229 -4.9567,0.76918 -1.5689,0.9782 2.2993,2.47659 2.9631,2.41297 1.6696,-0.16186 1.8794,-1.82026 1.9749,-3.18683 z" /><path
   id="path75"
   style="fill:#010101;stroke:#010101;stroke-width:1.49031"
   d="m -1092.0256,-307.691 -0.7778,-0.80608 c -0.4687,-0.48574 2.1685,0.78872 2.792,0.84166 1.0203,0.0862 2.0091,-0.31322 3.0218,0.0526 1.3372,0.48686 1.8772,1.68209 2.2425,3.07545 0.2842,1.09029 -0.9995,2.03295 -1.6,2.54808 -1.2545,1.07609 -2.8497,-0.0267 -3.8396,-0.59831 -1.186,-0.68077 -3.1775,0.42094 -4.4082,0.67999 -1.2657,0.26666 -2.6458,-0.27279 -2.2279,-1.97495 0.4795,-1.95206 1.3108,-2.75604 1.7106,-4.38498 0.5122,-1.34026 1.6059,-0.85507 2.3088,-0.23954 0.2471,0.21634 0.463,0.45936 0.7407,0.75654 z" /><path
   id="path76"
   style="fill:#010101;stroke:#010101;stroke-width:1.67048;stroke-linecap:butt;stroke-linejoin:round;stroke-dasharray:none"
   d="m -1242.9355,-434.15761 c -0.9876,-2.3208 -3.8511,-3.088 -4.8882,-2.44172 -1.5689,0.9782 1.4203,8.86934 2.0841,8.80572 1.6696,-0.16186 3.2359,-5.73711 2.7854,-6.36868 z" /><path
   id="path77"
   style="fill:#010101;stroke:#010101;stroke-width:1.76752;stroke-linecap:butt;stroke-linejoin:round;stroke-dasharray:none"
   d="m -1102.1802,-339.86484 c -1.6463,-1.55863 -6.4198,-2.07387 -8.1487,-1.63984 -2.6154,0.65695 2.3677,5.95657 3.4742,5.91384 2.7833,-0.1087 5.3944,-3.85299 4.6434,-4.27714 z" /></g>
</g><path
   style="font-size:35.9644px;line-height:0;font-family:'Adwaita Sans';-inkscape-font-specification:'Adwaita Sans, @opsz=32,wght=900';font-variation-settings:'opsz' 32, 'wght' 900;text-align:center;letter-spacing:-4.49555px;word-spacing:0px;text-anchor:middle;stroke:#010101;stroke-width:1.296;stroke-linejoin:round;stroke-miterlimit:10;paint-order:markers stroke fill"
   d="m 31.46047,96.826184 q -3.23543,1.496679 -6.52138,1.2947 -3.27002,-0.209342 -6.06082,-2.226963 -2.79818,-2.033554 -4.61927,-5.970249 -1.83583,-3.968579 -1.57388,-7.41771 0.26193,-3.449135 2.22696,-6.060826 1.97359,-2.634993 5.20902,-4.131672 2.27914,-1.054312 4.50137,-1.269652 2.22222,-0.21534 4.22435,0.348343 2.01806,0.556298 3.70686,1.864731 1.70473,1.30106 2.91701,3.294289 l -6.67805,3.089208 q -0.53419,-0.778365 -1.21043,-1.278186 -0.66029,-0.507194 -1.41599,-0.718723 -0.75571,-0.211525 -1.58351,-0.11882 -0.81924,0.06939 -1.6799,0.467518 -1.60975,0.744655 -2.37151,2.025781 -0.74583,1.273744 -0.64131,3.005468 0.0972,1.715783 1.063,3.80367 0.95847,2.071941 2.18722,3.26426 1.2447,1.184943 2.71425,1.433878 1.46956,0.248925 3.07931,-0.49573 0.86065,-0.398131 1.45133,-0.961603 0.59068,-0.563472 0.91877,-1.276351 0.3207,-0.728822 0.36906,-1.544485 0.0569,-0.838973 -0.1671,-1.741477 l 6.67806,-3.089209 q 0.71819,2.221793 0.62192,4.355979 -0.10364,2.118248 -0.98629,4.016406 -0.88265,1.898155 -2.48556,3.452289 -1.59435,1.530824 -3.87349,2.585136 z"
   id="text78"
   aria-label="C" /><path
   d="M 55.54446,7.9112785 V 28.205319 c 0,7.03415 5.65539,12.69872 12.68952,12.69872 H 88.5372 Z"
   style="fill:#000000;fill-opacity:1;stroke:url(#linearGradient79);stroke-width:4.847;stroke-linecap:round;stroke-linejoin:round;stroke-miterlimit:10;stroke-dasharray:none;stroke-opacity:1;paint-order:markers stroke fill"
   id="path78" /><path
   d="M 90.73721,38.292819 58.15568,5.7112785 H 18.07346 c -6.94646,0 -12.54042,5.5939705 -12.54042,12.5404405 v 86.139461 c 0,6.9465 5.59396,12.54048 12.54042,12.54048 h 60.1324 c 6.94646,0 12.53135,-5.59398 12.53135,-12.54048 z"
   style="fill:none;stroke:#000000;stroke-width:6.87728;stroke-linecap:round;stroke-linejoin:round;stroke-miterlimit:10;stroke-dasharray:none;stroke-opacity:1;paint-order:fill markers stroke"
   id="path79" /></svg>
